#!OML:ASF \\sashay\E\Suitcase\Project 1\Capture day 1\Session 1\Male1.ASF
:FULLY-SPECIFIED
:DEGREES
991
root -1.15447 17.5325 9.61994 2.62476 7.47927 -1.13902
lowerback 1.57203 -1.57563 1.56037
upperback 1.1341 -2.08195 2.12635
thorax 0.304484 -1.03876 1.32989
lowerneck -10.8144 -7.01053 -12.2657
upperneck 31.3541 -7.55694 1.07114
head 12.8346 -4.65156 1.41111
rclavicle 1.44119e-015 -6.36111e-015
rhumerus -27.1944 -33.962 -63.14
rradius 17.2014
rwrist -2.86482
rhand -10.3599 23.822
rfingers 7.12502
rthumb 15.637 -5.56599
lclavicle 1.44119e-015 -6.36111e-015
lhumerus -37.7103 -4.63265 88.8888
lradius 37.9965
lwrist -2.43994
lhand 2.67234 44.4199
lfingers 7.12502
lthumb 28.1474 72.3271
rfemur -2.48423 -3.17096 21.8429
rtibia 14.0361
rfoot -11.8966 -19.7146
rtoes 14.7476
lfemur -6.17329 -5.87712 -11.9175
ltibia 15.9609
lfoot -11.1761 3.51815
ltoes -4.53496
992
root -1.16659 17.5293 9.64264 2.56811 7.53151 -1.46832
lowerback 1.82384 -1.60461 1.71437
upperback 0.964377 -2.1054 2.25602
thorax -0.0106741 -1.05114 1.38807
lowerneck -10.6325 -6.96072 -12.428
upperneck 31.3507 -7.51464 1.20224
head 12.8068 -4.63796 1.50085
rclavicle 1.00883e-014 1.15295e-014
rhumerus -27.9331 -33.7863 -62.8262
rradius 17.0835
rwrist -2.76843
rhand -10.1992 22.9628
rfingers 7.12502
rthumb 15.7918 -6.4131
lclavicle 1.00883e-014 1.15295e-014
lhumerus -38.0401 -4.58997 88.9186
lradius 37.994
lwrist -2.42828
lhand 2.60163 44.3464
lfingers 7.12502
lthumb 28.0798 72.2647
rfemur -2.32994 -2.59524 22.3101
rtibia 14.0196
rfoot -12.4216 -20.206
rtoes 16.6322
lfemur -6.1157 -5.81553 -11.4917
ltibia 15.9397
lfoot -11.1644 3.37567
ltoes -3.23792
993
root -1.16798 17.5315 9.65842 2.64928 7.4814 -1.42339
lowerback 2.02974 -1.55543 1.64292
upperback 0.78826 -2.02935 2.25553
thorax -0.304841 -1.01427 1.43563
lowerneck -10.4682 -6.96259 -12.5938
upperneck 31.3266 -7.54678 1.3435
head 12.7808 -4.65517 1.58288
rclavicle 1.63997e-015 2.94201e-014
rhumerus -28.8168 -33.4899 -62.5599
rradius 17.2533
rwrist -3.17178
rhand -10.2078 22.6906
rfingers 7.12502
rthumb 15.7835 -6.68589
lclavicle 1.63997e-015 2.94201e-014
lhumerus -38.4287 -4.64731 89.032
lradius 38.2133
lwrist -2.26524
lhand 2.66012 44.7141
lfingers 7.12502
lthumb 28.1357 72.6232
rfemur -2.46286 -2.5674 22.2848
rtibia 14.131
rfoot -12.3307 -20.2351
rtoes 16.0075
lfemur -6.11219 -5.74323 -11.5178
ltibia 15.8793
lfoot -11.2019 3.32639
ltoes -4.38123
994
root -1.16596 17.5327 9.67135 2.70505 7.60851 -1.3366
lowerback 2.15763 -1.57999 1.60553
upperback 0.657633 -2.05523 2.22743
thorax -0.509686 -1.02778 1.43479
lowerneck -10.0813 -6.9317 -12.8244
upperneck 31.149 -7.57082 1.55798
head 12.6504 -4.66622 1.71371
rclavicle -2.66371e-014 1.51076e-014
rhumerus -29.6047 -33.2279 -62.3581
rradius 17.4197
rwrist -3.23147
rhand -10.7332 22.3907
rfingers 7.12502
rthumb 15.2775 -7.02507
lclavicle -2.66371e-014 1.51076e-014
lhumerus -38.7063 -4.65276 89.0886
lradius 38.3318
lwrist -2.1933
lhand 2.97299 45.3891
lfingers 7.12502
lthumb 28.4347 73.2487
rfemur -2.48196 -2.419 22.2129
rtibia 14.145
rfoot -12.5354 -20.5774
rtoes 16.3433
lfemur -6.12908 -5.87764 -11.5974
ltibia 15.8296
lfoot -11.5562 3.27259
ltoes -3.7711
995
root -1.1586 17.5325 9.68465 2.84661 7.57129 -0.885444
lowerback 2.11766 -1.56423 1.19438
upperback 0.592203 -2.04397 2.0631
thorax -0.546172 -1.02226 1.49585
lowerneck -9.76097 -6.89226 -12.8068
upperneck 30.9346 -7.60161 1.68025
head 12.5001 -4.66188 1.7659
rclavicle 1.76918e-014 5.1684e-015
rhumerus -30.1918 -33.5854 -62.0346
rradius 16.8341
rwrist -2.97188
rhand -11.1402 22.8662
rfingers 7.12502
rthumb 14.8855 -6.57905
lclavicle 1.76918e-014 5.1684e-015
lhumerus -38.9121 -4.67833 89.0513
lradius 38.4263
lwrist -2.27875
lhand 2.94798 45.2862
lfingers 7.12502
lthumb 28.4108 73.1497
rfemur -2.61121 -2.83003 21.6758
rtibia 14.3221
rfoot -12.4297 -20.2222
rtoes 15.7069
lfemur -6.04182 -5.79177 -12.1304
ltibia 15.6547
lfoot -11.6324 3.40336
ltoes -3.59337
996
root -1.15144 17.5337 9.6976 2.93584 7.69756 -0.950013
lowerback 1.93411 -1.57225 1.35685
upperback 0.69508 -2.05859 2.09139
thorax -0.342443 -1.02928 1.42668
lowerneck -9.88971 -6.945 -12.9967
upperneck 30.7725 -7.66951 1.86405
head 12.485 -4.68527 1.85296
rclavicle -1.95803e-014 2.18663e-014
rhumerus -30.5918 -33.8391 -61.769
rradius 16.8119
rwrist -2.86228
rhand -10.8876 22.3071
rfingers 7.12502
rthumb 15.1288 -7.11997
lclavicle -1.95803e-014 2.18663e-014
lhumerus -38.7048 -4.6343 89.1311
lradius 38.278
lwrist -2.36008
lhand 2.73967 45.4547
lfingers 7.12502
lthumb 28.2118 73.3512
rfemur -2.73036 -2.97338 21.7277
rtibia 14.4817
rfoot -12.5234 -20.2329
rtoes 15.2387
lfemur -6.05097 -5.75258 -12.0497
ltibia 15.4475
lfoot -11.6152 3.06382
ltoes -3.48967
997
root -1.1592 17.5311 9.71971 2.95948 7.57217 -0.84391
lowerback 1.56075 -1.52527 1.09056
upperback 0.987525 -2.01751 2.06457
thorax 0.173707 -1.00919 1.5306
lowerneck -10.1626 -6.98214 -12.9239
upperneck 30.5431 -7.73293 1.98501
head 12.452 -4.68155 1.87002
rclavicle -2.43014e-014 -2.54444e-014
rhumerus -30.6904 -34.1469 -61.8912
rradius 16.6897
rwrist -2.77603
rhand -11.0312 22.2301
rfingers 7.12502
rthumb 14.9905 -7.20728
lclavicle -2.43014e-014 -2.54444e-014
lhumerus -38.1207 -4.7338 89.0942
lradius 37.8451
lwrist -2.17091
lhand 2.49863 44.616
lfingers 7.12502
lthumb 27.9814 72.5503
rfemur -2.6838 -2.5145 21.6826
rtibia 14.6069
rfoot -13.0675 -20.4244
rtoes 16.7374
lfemur -5.88656 -5.79427 -12.1354
ltibia 15.3064
lfoot -11.6989 3.28642
ltoes -3.34944
998
root -1.15093 17.5295 9.74022 3.02125 7.77001 -0.555691
lowerback 1.1916 -1.67443 0.857853
upperback 1.20562 -2.23234 1.99566
thorax 0.613959 -1.11807 1.5766
lowerneck -10.3315 -6.92831 -12.9353
upperneck 30.308 -7.65245 2.07657
head 12.3869 -4.62883 1.91492
rclavicle -1.68967e-014 -1.66979e-014
rhumerus -30.7605 -34.1598 -61.9768
rradius 16.2684
rwrist -2.94107
rhand -10.9899 22.014
rfingers 7.12502
rthumb 15.0302 -7.42046
lclavicle -1.68967e-014 -1.66979e-014
lhumerus -38.1328 -4.23356 88.934
lradius 38.184
lwrist -2.47542
lhand 2.37367 44.7837
lfingers 7.12502
lthumb 27.8619 72.7375
rfemur -2.5492 -2.97685 21.3077
rtibia 14.4458
rfoot -12.853 -20.262
rtoes 16.0574
lfemur -5.91414 -5.92121 -12.4665
ltibia 15.3891
lfoot -11.9026 3.17002
ltoes -1.45569
999
root -1.17072 17.5265 9.76236 3.00447 7.52288 -0.786957
lowerback 0.935489 -1.62168 0.79793
upperback 1.53776 -2.17592 2.08497
thorax 1.1025 -1.09169 1.68737
lowerneck -11.0377 -6.97077 -12.7547
upperneck 30.2246 -7.66146 2.11077
head 12.489 -4.59783 1.87449
rclavicle 4.87022e-015 -2.0276e-014
rhumerus -30.7635 -35.0228 -61.9044
rradius 16.0979
rwrist -2.19064
rhand -10.9804 22.2001
rfingers 7.12502
rthumb 15.0394 -7.23368
lclavicle 4.87022e-015 -2.0276e-014
lhumerus -37.4658 -4.34652 88.8439
lradius 37.6623
lwrist -2.30979
lhand 2.368 44.3575
lfingers 7.12502
lthumb 27.8565 72.3122
rfemur -2.50859 -2.17536 21.7462
rtibia 14.4039
rfoot -13.0884 -20.8865
rtoes 16.9792
lfemur -5.8262 -5.71799 -12.1133
ltibia 15.4063
lfoot -11.8204 3.13792
ltoes -3.47458
1000
root -1.17623 17.5217 9.77317 2.97144 7.53479 -1.27731
lowerback 0.843549 -1.60296 1.21056
upperback 1.60934 -2.15574 2.27392
thorax 1.21935 -1.07796 1.64643
lowerneck -10.9567 -6.98375 -12.8784
upperneck 30.0051 -7.6957 2.23172
head 12.3978 -4.60776 1.93898
rclavicle -1.97294e-014 -9.54166e-015
rhumerus -31.0375 -34.6476 -61.9422
rradius 15.8603
rwrist -2.71546
rhand -11.4666 22.0777
rfingers 7.12502
rthumb 14.571 -7.39055
lclavicle -1.97294e-014 -9.54166e-015
lhumerus -37.4222 -4.26113 88.9333
lradius 37.5437
lwrist -2.3616
lhand 1.97265 44.3141
lfingers 7.12502
lthumb 27.4784 72.3295
rfemur -2.45246 -1.73641 22.3604
rtibia 14.3127
rfoot -13.0618 -21.2675
rtoes 16.1956
lfemur -5.88054 -5.73808 -11.5004
ltibia 15.4753
lfoot -11.9794 3.23503
ltoes -0.991133
1001
root -1.17045 17.5233 9.78153 3.09173 7.55958 -1.11743
lowerback 0.761467 -1.68393 1.09853
upperback 1.66675 -2.26698 2.21669
thorax 1.32849 -1.13454 1.64635
lowerneck -11.0919 -6.92313 -12.7246
upperneck 29.8445 -7.62293 2.22989
head 12.3433 -4.55397 1.92137
rclavicle 1.74434e-014 -7.15625e-015
rhumerus -31.3158 -34.6652 -61.9405
rradius 15.5178
rwrist -2.63222
rhand -11.5121 21.8656
rfingers 7.12502
rthumb 14.5271 -7.60578
lclavicle 1.74434e-014 -7.15625e-015
lhumerus -37.3445 -4.03933 88.8219
lradius 37.4838
lwrist -2.54805
lhand 2.06654 44.4246
lfingers 7.12502
lthumb 27.5682 72.4256
rfemur -2.44035 -2.0353 22.1494
rtibia 14.1127
rfoot -13.0358 -21.1718
rtoes 16.5605
lfemur -6.06902 -5.78983 -11.6819
ltibia 15.6765
lfoot -11.8304 3.34257
ltoes -1.20127
